<?xml version="1.0" encoding="UTF-8" standalone="no"?>
<svg
   xmlns:dc="http://purl.org/dc/elements/1.1/"
   xmlns:cc="http://creativecommons.org/ns#"
   xmlns:rdf="http://www.w3.org/1999/02/22-rdf-syntax-ns#"
   xmlns:svg="http://www.w3.org/2000/svg"
   xmlns="http://www.w3.org/2000/svg"
   xmlns:sodipodi="http://sodipodi.sourceforge.net/DTD/sodipodi-0.dtd"
   xmlns:inkscape="http://www.inkscape.org/namespaces/inkscape"
   version="1.1"
   id="Layer_1"
   x="0px"
   y="0px"
   viewBox="0 0 33.6 90"
   xml:space="preserve"
   inkscape:version="0.92.1 r15371"
   sodipodi:docname="led.svg"
   width="33.599998"
   height="90"><metadata
     id="metadata73"><rdf:RDF><cc:Work
         rdf:about=""><dc:format>image/svg+xml</dc:format><dc:type
           rdf:resource="http://purl.org/dc/dcmitype/StillImage" /><dc:title>SparkFun Parts for MS Kit</dc:title></cc:Work></rdf:RDF></metadata><defs
     id="defs71" /><sodipodi:namedview
     pagecolor="#ffffff"
     bordercolor="#666666"
     borderopacity="1"
     objecttolerance="10"
     gridtolerance="10"
     guidetolerance="10"
     inkscape:pageopacity="0"
     inkscape:pageshadow="2"
     inkscape:window-width="1600"
     inkscape:window-height="837"
     id="namedview69"
     showgrid="false"
     inkscape:zoom="5.9671303"
     inkscape:cx="22.916842"
     inkscape:cy="43.879081"
     inkscape:window-x="-8"
     inkscape:window-y="-8"
     inkscape:window-maximized="1"
     inkscape:current-layer="g7" /><title
     id="title3">SparkFun Parts for MS Kit</title><path
     class="st0"
     style="opacity:0.65;fill:#ececec"
     d="m 1.3,65.000002 v 5.9 C 1.3,74.800002 4.5,78 8.4,78 c 3.9,0 7.1,-3.199998 7.1,-7.099998 v 0 -13.7 c -1.9,-1.9 -4.4,-2.9 -7.1,-2.8 -4.6,0 -8.4,2.6 -8.4,5.9 v 1.5 c 0,1.2 0.5,2.3 1.3,3.2 z"
     id="path5"
     inkscape:connector-curvature="0" /><g
     id="g7"
     transform="translate(0,10.900002)"><rect
       style="fill:#ffffff;fill-opacity:1;stroke:none;stroke-width:3.93861532;stroke-linecap:round;stroke-linejoin:round;stroke-miterlimit:4;stroke-dasharray:none;stroke-opacity:1"
       id="rect4526"
       width="32.008686"
       height="9.55233"
       x="0.83792371"
       y="68.709747" /><path
       class="st1"
       style="fill:#8c8c8c"
       d="m 12.7,49.6 1.2,1.4 h -1 L 10.5,49.6 V 15 c 0,-0.3 0.5,-0.5 1.1,-0.5 v 0 c 0.6,0 1.1,0.2 1.1,0.5 z"
       id="path9"
       inkscape:connector-curvature="0" /><path
       class="st1"
       style="fill:#8c8c8c"
       d="m 2.6,42.9 c 0,0.7 1.1,1.3 2.1,1.8 0.4,0.2 1.2,0.6 1.2,0.9 V 49 L 3.4,51 H 4.3 L 8,49 V 45.5 C 8,44.8 7.1,44.3 6.1,43.8 5.7,43.6 4.8,43 4.8,42.7 c 0,-0.1 0,-46.8 0,-52.9 0,-0.4 -0.5,-0.7 -1.1,-0.7 v 0 0 c -0.6,0 -1.1,0.3 -1.1,0.7 v 0 z"
       id="path11"
       inkscape:connector-curvature="0" /><path
       class="sim-led-main"
       style="opacity:0.3;fill:#cccccc"
       d="M 1.3,54.1 V 60 c 0,3.9 3.2,7.1 7.1,7.1 3.9,0 7.1,-3.2 7.1,-7.1 V 60 46.3 C 13.6,44.4 11.1,43.4 8.4,43.5 3.8,43.5 0,46.1 0,49.4 v 1.5 c 0,1.2 0.5,2.3 1.3,3.2 z"
       id="LED"
       inkscape:label="#path13"
       inkscape:connector-curvature="0" /><path
       class="st3"
       style="opacity:0.9;fill:#d1d1d1"
       d="M 1.3,54.1 V 51 c 0,-2.7 3.2,-5 7.1,-5 3.9,0 7.1,2.2 7.1,5 V 46.4 C 13.6,44.5 11.1,43.5 8.4,43.6 3.8,43.6 0,46.2 0,49.5 V 51 c 0,1.1 0.5,2.2 1.3,3.1 z"
       id="path15"
       inkscape:connector-curvature="0" /><path
       class="st4"
       style="opacity:0.7;fill:#e6e6e6"
       d="M 1.3,54.1 V 51 c 0,-2.7 3.2,-5 7.1,-5 3.9,0 7.1,2.2 7.1,5 V 46.4 C 13.6,44.5 11.1,43.5 8.4,43.6 3.8,43.6 0,46.2 0,49.5 V 51 c 0,1.1 0.5,2.2 1.3,3.1 z"
       id="path17"
       inkscape:connector-curvature="0" /><path
       class="st5"
       style="opacity:0.25;fill:#e6e6e6"
       d="M 1.3,54.1 V 51 c 0,-2.7 3.2,-5 7.1,-5 3.9,0 7.1,2.2 7.1,5 V 47.9 C 13.6,46 11.1,45 8.4,45.1 3.8,45.1 0,47.7 0,51 c 0,1.1 0.5,2.2 1.3,3.1 z"
       id="path19"
       inkscape:connector-curvature="0" /><ellipse
       class="st5"
       style="opacity:0.25;fill:#e6e6e6"
       cx="8.3000002"
       cy="51"
       rx="7.0999999"
       ry="5"
       id="ellipse21" /><ellipse
       class="st5"
       style="opacity:0.25;fill:#e6e6e6"
       cx="8.3000002"
       cy="51"
       rx="7.0999999"
       ry="5"
       id="ellipse23" /><g
       class="st8"
       style="opacity:0.61000001"
       id="g29"
       transform="translate(0,-12)"><path
         class="st9"
         style="fill:#ffffff"
         d="m 8.3,57.1 c 4.3,0 6.1,2 6.1,2 l -0.7,0.7 c 0,0 -1.6,-1.7 -5.4,-1.7 C 5.9,58 3.6,59 2,60.8 L 1.2,60.2 C 3.1,58.1 5.6,57 8.3,57.1 Z"
         id="path31"
         inkscape:connector-curvature="0" /></g><g
       class="st8"
       style="opacity:0.61000001"
       id="g33"
       transform="translate(0,-12)"><path
         class="st9"
         style="fill:#ffffff"
         d="m 12.9,75.9 c 1.1,-1.1 1.7,-2.6 1.7,-4.2 V 61.4 l -1.9,-1.5 v 10.4 c 0.9,2.8 0.3,4.2 -0.7,5.2 0.3,0.1 0.6,0.2 0.9,0.4 z"
         id="path35"
         inkscape:connector-curvature="0" /><path
         class="st9"
         style="fill:#ffffff"
         d="M 5.6,77.5 C 5.7,77.2 5.8,76.9 5.9,76.6 4.4,75.9 3.3,74.5 3.1,72.9 h -1 c 0.3,2 1.6,3.7 3.5,4.6 z"
         id="path37"
         inkscape:connector-curvature="0" /></g><text
       xml:space="preserve"
       style="font-style:normal;font-variant:normal;font-weight:normal;font-stretch:normal;font-size:7.74444246px;line-height:1.25;font-family:consolas;-inkscape-font-specification:consolas;letter-spacing:0px;word-spacing:0px;fill:#666666;fill-opacity:1;stroke:none;stroke-width:0.96805531"
       x="14.103056"
       y="0.22491455"
       id="text4514"><tspan
         sodipodi:role="line"
         id="tspan4512"
         x="14.103056"
         y="0.22491455"
         style="fill:#666666;stroke-width:0.96805531">330Ω</tspan></text>
<text
       xml:space="preserve"
       style="font-style:normal;font-variant:normal;font-weight:normal;font-stretch:normal;font-size:32.79336548px;line-height:1.25;font-family:consolas;-inkscape-font-specification:consolas;letter-spacing:0px;word-spacing:0px;fill:#000000;fill-opacity:1;stroke:none;stroke-width:0.81983411"
       x="1.8680531"
       y="77.579796"
       id="text4524"><tspan
         sodipodi:role="line"
         id="tspan4522"
         x="1.8680531"
         y="106.03381"
         style="font-size:10.93112087px;stroke-width:0.81983411" /></text>
</g><g
     id="g39"
     transform="translate(0,-1.099998)"><rect
       x="11.6"
       y="16.9"
       class="st1"
       style="fill:#8c8c8c"
       width="21.700001"
       height="1.9"
       id="rect41" /><g
       id="g43"><rect
         x="12"
         y="16.9"
         class="st10"
         style="fill:none"
         width="3.2"
         height="1.9"
         id="rect45" /><path
         class="st11"
         style="fill:#d6bf90"
         d="m 19,15 c -0.3,-0.2 -0.6,-0.3 -0.9,-0.3 h -1.4 c -0.3,0 -0.5,0.3 -0.5,0.7 v 4.9 c 0,0.4 0.2,0.7 0.5,0.7 h 1.4 c 0.3,0 0.6,-0.1 0.9,-0.3 v 0 c 0.3,-0.2 0.6,-0.3 0.9,-0.3 h 5 c 0.3,0 0.6,0.1 0.9,0.3 h 0.1 c 0.3,0.2 0.6,0.3 0.9,0.3 h 1.4 c 0.3,0 0.5,-0.3 0.5,-0.7 v -4.9 c 0,-0.4 -0.2,-0.7 -0.5,-0.7 h -1.4 c -0.3,0 -0.6,0.1 -0.9,0.3 h -0.1 c -0.3,0.2 -0.6,0.3 -0.9,0.3 h -5 C 19.7,15.3 19.4,15.2 19,15 Z"
         id="path47"
         inkscape:connector-curvature="0" /><path
         class="st12"
         style="fill:#aa936b"
         d="m 28.4,18.5 c -0.1,0.1 -0.1,0.2 -0.2,0.3 -0.3,0.5 -0.7,0.8 -1.2,0.8 -0.5,0 -0.9,-0.1 -1.4,-0.3 -0.6,-0.1 -1.1,-0.1 -1.7,-0.1 -2,0 -3.9,0 -5.9,0.2 -0.4,0.1 -0.8,0 -1.1,-0.1 -0.2,-0.1 -0.4,-0.2 -0.5,-0.5 v 1.5 c 0,0.2 0.1,0.3 0.2,0.3 H 18 c 0.3,0 0.6,-0.1 0.9,-0.3 C 19.2,20.1 19.6,20 20,20 h 5 c 0.4,0 0.8,0.1 1.1,0.3 0.3,0.1 0.6,0.2 0.8,0.2 h 1.4 c 0.1,0 0.2,-0.1 0.2,-0.3 v -1.9 c 0,0.1 -0.1,0.2 -0.1,0.2 z"
         id="path49"
         inkscape:connector-curvature="0" /><g
         id="g51"><rect
           x="27.200001"
           y="14.7"
           class="st13"
           style="fill:#ad9f4e"
           width="0.69999999"
           height="6.1999998"
           id="rect53" /><rect
           x="27.200001"
           y="17.799999"
           class="st14"
           style="opacity:0.4"
           width="0.69999999"
           height="2.5"
           id="rect55" /><rect
           x="27.200001"
           y="15"
           class="st15"
           style="opacity:0.5;fill:#ffff33"
           width="0.69999999"
           height="1.3"
           id="rect57" /><rect
           x="27.200001"
           y="15.3"
           class="st16"
           style="opacity:0.5;fill:#ffffff"
           width="0.69999999"
           height="0.69999999"
           id="rect59" /></g><rect
         x="23.1"
         y="15.3"
         class="st17"
         style="fill:#aa4518"
         width="1.3"
         height="5.0999999"
         id="rect61" /><rect
         x="20.6"
         y="15.3"
         class="st18"
         style="fill:#ff9700"
         width="1.3"
         height="5.0999999"
         id="rect63" /><path
         class="st18"
         style="fill:#ff9700"
         d="M 19.3,15.1 C 19.2,15.1 19.2,15 19.1,15 v 0 C 18.8,14.8 18.5,14.7 18.2,14.7 H 18 V 21 h 0.1 c 0.3,0 0.6,-0.1 0.9,-0.3 v 0 c 0.1,0 0.1,-0.1 0.2,-0.1 v -5.5 z"
         id="path65"
         inkscape:connector-curvature="0" /><path
         class="st19"
         style="opacity:0.73999999;fill:#fffdfa"
         d="m 18.7,15.7 c 0.4,0.1 0.8,0.2 1.2,0.2 0.4,0 0.7,0 1.1,0 1.2,-0.1 2.4,-0.1 3.6,0 0.4,0 0.9,0 1.3,-0.1 0.3,-0.1 0.6,-0.2 0.8,-0.3 0.6,-0.2 1.2,-0.3 1.8,-0.2 0,-0.1 -0.1,-0.3 -0.2,-0.3 h -1.4 c -0.3,0 -0.6,0.1 -0.9,0.3 -0.3,0.2 -0.7,0.3 -1.1,0.3 h -5 c -0.4,0 -0.8,-0.1 -1.1,-0.3 -0.3,-0.1 -0.6,-0.2 -0.8,-0.2 h -1.4 c -0.1,0 -0.2,0.1 -0.2,0.3 v 0.2 c 0.8,-0.1 1.5,0 2.3,0.1 z"
         id="path67"
         inkscape:connector-curvature="0" /></g></g></svg>