<?xml version="1.0" encoding="UTF-8" standalone="no"?>
<svg
   xmlns:dc="http://purl.org/dc/elements/1.1/"
   xmlns:cc="http://creativecommons.org/ns#"
   xmlns:rdf="http://www.w3.org/1999/02/22-rdf-syntax-ns#"
   xmlns:svg="http://www.w3.org/2000/svg"
   xmlns="http://www.w3.org/2000/svg"
   xmlns:sodipodi="http://sodipodi.sourceforge.net/DTD/sodipodi-0.dtd"
   xmlns:inkscape="http://www.inkscape.org/namespaces/inkscape"
   version="1.1"
   id="Layer_1"
   x="0px"
   y="0px"
   viewBox="0 0 33.6 90"
   xml:space="preserve"
   inkscape:version="0.92.1 r15371"
   sodipodi:docname="photocell.svg"
   width="33.599998"
   height="90"><metadata
     id="metadata73"><rdf:RDF><cc:Work
         rdf:about=""><dc:format>image/svg+xml</dc:format><dc:type
           rdf:resource="http://purl.org/dc/dcmitype/StillImage" /><dc:title>SparkFun Parts for MS Kit</dc:title></cc:Work></rdf:RDF></metadata><defs
     id="defs71"><inkscape:path-effect
       effect="bspline"
       id="path-effect4632"
       is_visible="true"
       weight="33.333333"
       steps="2"
       helper_size="0"
       apply_no_weight="true"
       apply_with_weight="true"
       only_selected="false" /></defs><sodipodi:namedview
     pagecolor="#ffffff"
     bordercolor="#666666"
     borderopacity="1"
     objecttolerance="10"
     gridtolerance="10"
     guidetolerance="10"
     inkscape:pageopacity="0"
     inkscape:pageshadow="2"
     inkscape:window-width="1600"
     inkscape:window-height="837"
     id="namedview69"
     showgrid="false"
     inkscape:zoom="8.4387966"
     inkscape:cx="-11.739395"
     inkscape:cy="48.272104"
     inkscape:window-x="-8"
     inkscape:window-y="-8"
     inkscape:window-maximized="1"
     inkscape:current-layer="Layer_1" /><title
     id="title3">SparkFun Parts for MS Kit</title><rect
     y="79.609749"
     x="0.83792371"
     height="9.55233"
     width="32.008686"
     id="rect4526"
     style="fill:#ffffff;fill-opacity:1;stroke:none;stroke-width:3.93861532;stroke-linecap:round;stroke-linejoin:round;stroke-miterlimit:4;stroke-dasharray:none;stroke-opacity:1" /><path
     inkscape:connector-curvature="0"
     id="path9"
     d="m 12.7,60.500002 1.2,1.4 h -1 l -2.4,-1.4 v -34.6 c 0,-0.3 0.5,-0.5 1.1,-0.5 v 0 c 0.6,0 1.1,0.2 1.1,0.5 z"
     style="fill:#8c8c8c"
     class="st1" /><path
     inkscape:connector-curvature="0"
     id="path11"
     d="M 3.4,61.900002 H 5.3055085 L 4.8,0.700002 C 4.7966961,0.30001564 4.3,2e-6 3.7,2e-6 v 0 0 c -0.6,0 -1.1,0.3 -1.1,0.7 v 0 z"
     style="fill:#8c8c8c"
     class="st1"
     sodipodi:nodetypes="ccscccccc" /><text
     id="text4514"
     y="11.124916"
     x="14.103056"
     style="font-style:normal;font-variant:normal;font-weight:normal;font-stretch:normal;font-size:7.74444246px;line-height:1.25;font-family:consolas;-inkscape-font-specification:consolas;letter-spacing:0px;word-spacing:0px;fill:#666666;fill-opacity:1;stroke:none;stroke-width:0.96805531"
     xml:space="preserve"><tspan
       style="fill:#666666;stroke-width:0.96805531"
       y="11.124916"
       x="14.103056"
       id="tspan4512"
       sodipodi:role="line">10kΩ</tspan></text>
<text
     id="text4524"
     y="88.479797"
     x="1.8680531"
     style="font-style:normal;font-variant:normal;font-weight:normal;font-stretch:normal;font-size:32.79336548px;line-height:1.25;font-family:consolas;-inkscape-font-specification:consolas;letter-spacing:0px;word-spacing:0px;fill:#000000;fill-opacity:1;stroke:none;stroke-width:0.81983411"
     xml:space="preserve"><tspan
       style="font-size:10.93112087px;stroke-width:0.81983411"
       y="116.93382"
       x="1.8680531"
       id="tspan4522"
       sodipodi:role="line" /></text>
<rect
     id="rect41"
     height="1.9"
     width="21.700001"
     style="fill:#8c8c8c"
     class="st1"
     y="15.800001"
     x="11.6" /><rect
     x="12"
     y="15.800001"
     class="st10"
     style="fill:none"
     width="3.2"
     height="1.9"
     id="rect45" /><path
     class="st11"
     style="fill:#d6bf90"
     d="m 19,13.900002 c -0.3,-0.2 -0.6,-0.3 -0.9,-0.3 h -1.4 c -0.3,0 -0.5,0.3 -0.5,0.7 v 4.9 c 0,0.4 0.2,0.7 0.5,0.7 h 1.4 c 0.3,0 0.6,-0.1 0.9,-0.3 v 0 c 0.3,-0.2 0.6,-0.3 0.9,-0.3 h 5 c 0.3,0 0.6,0.1 0.9,0.3 h 0.1 c 0.3,0.2 0.6,0.3 0.9,0.3 h 1.4 c 0.3,0 0.5,-0.3 0.5,-0.7 v -4.9 c 0,-0.4 -0.2,-0.7 -0.5,-0.7 h -1.4 c -0.3,0 -0.6,0.1 -0.9,0.3 h -0.1 c -0.3,0.2 -0.6,0.3 -0.9,0.3 h -5 c -0.2,0 -0.5,-0.1 -0.9,-0.3 z"
     id="path47"
     inkscape:connector-curvature="0" /><path
     class="st12"
     style="fill:#aa936b"
     d="m 28.4,17.400002 c -0.1,0.1 -0.1,0.2 -0.2,0.3 -0.3,0.5 -0.7,0.8 -1.2,0.8 -0.5,0 -0.9,-0.1 -1.4,-0.3 -0.6,-0.1 -1.1,-0.1 -1.7,-0.1 -2,0 -3.9,0 -5.9,0.2 -0.4,0.1 -0.8,0 -1.1,-0.1 -0.2,-0.1 -0.4,-0.2 -0.5,-0.5 v 1.5 c 0,0.2 0.1,0.3 0.2,0.3 H 18 c 0.3,0 0.6,-0.1 0.9,-0.3 0.3,-0.2 0.7,-0.3 1.1,-0.3 h 5 c 0.4,0 0.8,0.1 1.1,0.3 0.3,0.1 0.6,0.2 0.8,0.2 h 1.4 c 0.1,0 0.2,-0.1 0.2,-0.3 v -1.9 c 0,0.1 -0.1,0.2 -0.1,0.2 z"
     id="path49"
     inkscape:connector-curvature="0" /><g
     id="g51"
     transform="translate(0,-1.099998)"><rect
       x="27.200001"
       y="14.7"
       class="st13"
       style="fill:#ad9f4e"
       width="0.69999999"
       height="6.1999998"
       id="rect53" /><rect
       x="27.200001"
       y="17.799999"
       class="st14"
       style="opacity:0.4"
       width="0.69999999"
       height="2.5"
       id="rect55" /><rect
       x="27.200001"
       y="15"
       class="st15"
       style="opacity:0.5;fill:#ffff33"
       width="0.69999999"
       height="1.3"
       id="rect57" /><rect
       x="27.200001"
       y="15.3"
       class="st16"
       style="opacity:0.5;fill:#ffffff"
       width="0.69999999"
       height="0.69999999"
       id="rect59" /></g><rect
     x="23.1"
     y="14.200002"
     class="st17"
     style="fill:#ff9700;fill-opacity:1"
     width="1.3"
     height="5.0999999"
     id="rect61" /><rect
     x="20.6"
     y="14.200002"
     class="st18"
     style="fill:#000000;fill-opacity:1"
     width="1.3"
     height="5.0999999"
     id="rect63" /><path
     class="st18"
     style="fill:#aa4518;fill-opacity:1"
     d="m 19.3,14.000002 c -0.1,0 -0.1,-0.1 -0.2,-0.1 v 0 c -0.3,-0.2 -0.6,-0.3 -0.9,-0.3 H 18 v 6.3 h 0.1 c 0.3,0 0.6,-0.1 0.9,-0.3 v 0 c 0.1,0 0.1,-0.1 0.2,-0.1 v -5.5 z"
     id="path65"
     inkscape:connector-curvature="0" /><path
     class="st19"
     style="opacity:0.73999999;fill:#fffdfa"
     d="m 18.7,14.600002 c 0.4,0.1 0.8,0.2 1.2,0.2 0.4,0 0.7,0 1.1,0 1.2,-0.1 2.4,-0.1 3.6,0 0.4,0 0.9,0 1.3,-0.1 0.3,-0.1 0.6,-0.2 0.8,-0.3 0.6,-0.2 1.2,-0.3 1.8,-0.2 0,-0.1 -0.1,-0.3 -0.2,-0.3 h -1.4 c -0.3,0 -0.6,0.1 -0.9,0.3 -0.3,0.2 -0.7,0.3 -1.1,0.3 h -5 c -0.4,0 -0.8,-0.1 -1.1,-0.3 -0.3,-0.1 -0.6,-0.2 -0.8,-0.2 h -1.4 c -0.1,0 -0.2,0.1 -0.2,0.3 v 0.2 c 0.8,-0.1 1.5,0 2.3,0.1 z"
     id="path67"
     inkscape:connector-curvature="0" /><ellipse
     style="fill:#aa4518;fill-opacity:1;stroke:none;stroke-width:3.558676;stroke-linecap:round;stroke-linejoin:round;stroke-miterlimit:4;stroke-dasharray:none;stroke-opacity:1"
     id="path4569"
     ry="5.9492583"
     rx="6.745286"
     cy="64.610916"
     cx="8.0859642" /><ellipse
     style="fill:#e7e1df;fill-opacity:1;stroke:none;stroke-width:3.28300381;stroke-linecap:round;stroke-linejoin:round;stroke-miterlimit:4;stroke-dasharray:none;stroke-opacity:1"
     id="path4569-5"
     ry="5.4884005"
     rx="6.222764"
     cy="64.652809"
     cx="8.0243006" /><ellipse
     style="fill:#4d4d4d;fill-opacity:1;stroke:none;stroke-width:4;stroke-linecap:round;stroke-linejoin:round;stroke-miterlimit:4;stroke-dasharray:none;stroke-opacity:1"
     id="path4607"
     cx="3.3935912"
     cy="65"
     rx="0.62844276"
     ry="1.0168418" /><ellipse
     style="fill:#4d4d4d;fill-opacity:1;stroke:none;stroke-width:4;stroke-linecap:round;stroke-linejoin:round;stroke-miterlimit:4;stroke-dasharray:none;stroke-opacity:1"
     id="path4607-3"
     cx="12.568855"
     cy="65"
     rx="0.62844276"
     ry="1.0168418" /><path
     style="fill:none;stroke:#9e4c34;stroke-width:0.24566929;stroke-linecap:round;stroke-linejoin:miter;stroke-miterlimit:4;stroke-dasharray:none;stroke-opacity:1"
     d="m 5.865466,60.253708 c 2.5216421,0.258451 5.042396,0.51681 4.411086,0.820414 -0.63131,0.303603 -4.4169857,0.652835 -4.2244431,0.970671 0.1925426,0.317835 4.3600201,0.604044 4.2488701,0.991436 -0.111149,0.387393 -4.5042423,0.87629 -4.4828085,1.204577 0.021434,0.328287 4.4543385,0.49583 4.5351865,0.914613 0.08085,0.418783 -4.1934886,1.089267 -4.3187377,1.529318 -0.125249,0.44005 3.8957221,0.649476 4.1964697,1.008916 0.300747,0.359441 -3.1215788,0.869298 -3.7499624,1.183637 -0.6283837,0.314339 1.5359528,0.433028 3.6996464,0.551682"
     id="path4630"
     inkscape:connector-curvature="0"
     inkscape:path-effect="#path-effect4632"
     inkscape:original-d="m 5.865466,60.253708 c 2.5217539,0.25736 5.042508,0.515719 7.562262,0.775079 -3.782569,0.348038 -7.5682447,0.69727 -11.3538668,1.047405 4.1708633,0.285373 8.3383408,0.571581 12.5060118,0.858872 -4.390141,0.48768 -8.7832339,0.976578 -13.1763508,1.466366 4.4361212,0.166627 8.8690258,0.33417 13.3020388,0.502755 -4.271485,0.669193 -8.5458217,1.339678 -12.8202326,2.011017 4.0240965,0.208536 8.0450677,0.417961 12.0661016,0.628442 -3.419718,0.508617 -6.8420438,1.018474 -10.2645656,1.529211 2.1659362,0.117722 4.3302726,0.236412 6.4939086,0.356117"
     sodipodi:nodetypes="cccccccccc" /></svg>