<?xml version="1.0" encoding="UTF-8" standalone="no"?>
<svg
   xmlns:dc="http://purl.org/dc/elements/1.1/"
   xmlns:cc="http://creativecommons.org/ns#"
   xmlns:rdf="http://www.w3.org/1999/02/22-rdf-syntax-ns#"
   xmlns:svg="http://www.w3.org/2000/svg"
   xmlns="http://www.w3.org/2000/svg"
   xmlns:sodipodi="http://sodipodi.sourceforge.net/DTD/sodipodi-0.dtd"
   xmlns:inkscape="http://www.inkscape.org/namespaces/inkscape"
   id="LCD"
   height="129.27348"
   width="322.79001"
   version="1.1"
   y="0"
   x="0"
   viewBox="0 0 322.79001 129.27348"
   sodipodi:docname="lcd.svg"
   inkscape:version="0.92.1 r15371">
  <metadata
     id="metadata4614">
    <rdf:RDF>
      <cc:Work
         rdf:about="">
        <dc:format>image/svg+xml</dc:format>
        <dc:type
           rdf:resource="http://purl.org/dc/dcmitype/StillImage" />
        <dc:title />
      </cc:Work>
    </rdf:RDF>
  </metadata>
  <sodipodi:namedview
     pagecolor="#ffffff"
     bordercolor="#666666"
     borderopacity="1"
     objecttolerance="10"
     gridtolerance="10"
     guidetolerance="10"
     inkscape:pageopacity="0"
     inkscape:pageshadow="2"
     inkscape:window-width="1600"
     inkscape:window-height="837"
     id="namedview4612"
     showgrid="false"
     inkscape:zoom="2.2834946"
     inkscape:cx="236.99893"
     inkscape:cy="130.45295"
     inkscape:window-x="-8"
     inkscape:window-y="-8"
     inkscape:window-maximized="1"
     inkscape:current-layer="LCD"
     fit-margin-top="0"
     fit-margin-left="0"
     fit-margin-right="0"
     fit-margin-bottom="0"
     inkscape:measure-start="17.517,168.163"
     inkscape:measure-end="38.9753,168.601" />
  <defs
     id="defs2284">
    <inkscape:path-effect
       effect="bspline"
       id="path-effect4694"
       is_visible="true"
       weight="33.333333"
       steps="2"
       helper_size="0"
       apply_no_weight="true"
       apply_with_weight="true"
       only_selected="false" />
    <inkscape:path-effect
       effect="bspline"
       id="path-effect4663"
       is_visible="true"
       weight="33.333333"
       steps="2"
       helper_size="0"
       apply_no_weight="true"
       apply_with_weight="true"
       only_selected="false" />
    <inkscape:path-effect
       effect="bspline"
       id="path-effect4655"
       is_visible="true"
       weight="33.333333"
       steps="2"
       helper_size="0"
       apply_no_weight="true"
       apply_with_weight="true"
       only_selected="false" />
    <style
       id="style2282">
        .cls-textCase {
            fill: #000000;
            fill-opacity:0.8;
            font-family: monospace;
            font-weight: 100;
            font-size: 24px;
        }
	    .cls-case {
		    fill:#FFFFFF;
		    fill-opacity:0.1
	    } 

	    .cls-backlight_on {
           	fill:#A0F7F7;
	    }
	    .cls-backlight_off {
           	fill:#6e7d6e;
        }
        </style>
  </defs>
  <rect
     style="fill:#6767ff;fill-opacity:1;fill-rule:nonzero;stroke:#ffffff;stroke-width:0.6839866;stroke-linecap:round;stroke-linejoin:round;stroke-miterlimit:4;stroke-dasharray:none;stroke-dashoffset:0;stroke-opacity:1"
     id="rect4820"
     width="322.10602"
     height="128.58949"
     x="0.3419933"
     y="0.3419933" />
  <path
     style="fill:#303030;stroke-width:0.91905737"
     id="path132"
     d="m 308.60095,92.968402 c -1.03616,0 -1.88779,-0.75317 -1.88779,-1.7323 V 57.67885 c 0,-0.96837 0.85217,-1.74307 1.88779,-1.74307 h 0.0824 V 29.88017 29.0194 h -0.98774 l -2.895,-2.6684 V 25.38263 H 303.79351 19.02013 18.012057 V 26.351 l -2.892112,2.65764 h -0.988921 v 0.86077 26.05776 h 0.08241 c 1.036909,0 1.888785,0.75318 1.888785,1.74307 v 33.557252 c 0,0.96837 -0.851951,1.73231 -1.888785,1.73231 h -0.08241 v 26.056678 0.86077 h 0.988921 l 2.894985,2.65764 v 0.96837 h 1.008073 284.771467 1.0071 v -0.96837 l 2.895,-2.65764 h 0.98773 v -0.86077 -26.056678 z"
     inkscape:connector-curvature="0" />
  <g
     id="g140"
     transform="matrix(0.95828712,0,0,0.88143189,-10.211756,-3.3984002)">
    <path
       class="cls-backlight"
       id="backlight"
       d="m 319.568,118.341 c 0,3.252 -2.663,5.915 -5.917,5.915 H 44.524 c -3.253,0 -5.915,-2.661 -5.915,-5.915 V 58.306 c 0,-3.252 2.662,-5.916 5.915,-5.916 h 269.127 c 3.254,0 5.917,2.664 5.917,5.916 z"
       inkscape:connector-curvature="0" />
    <g
       style="opacity:0.2"
       id="g138">
      <path
         style="fill:#22420d"
         id="path136"
         d="m 319.556,58.28 v 60.087 c 0,-0.009 0.004,-0.018 0.004,-0.029 V 58.306 c 0,-0.008 -0.004,-0.017 -0.004,-0.026 z M 44.524,52.394 c -3.251,0 -5.915,2.664 -5.915,5.915 v 60.036 c 0,3.25 2.664,5.915 5.915,5.915 h 3.428 c -3.253,0 -5.914,-2.665 -5.914,-5.915 V 60.279 c 0,-3.252 2.661,-5.914 5.914,-5.914 h 270.063 c -1.082,-1.198 -2.633,-1.975 -4.37,-1.975 H 44.524 Z"
         inkscape:connector-curvature="0" />
    </g>
  </g>
  <g
     id="g146"
     transform="matrix(0.95828712,0,0,0.88143189,-10.211756,-3.3984002)">
    <path
       style="fill:#1a1a1a"
       id="path142"
       d="m 322.067,40.545 c 0,-1.083 -0.891,-1.969 -1.97,-1.969 H 38.081 c -1.08,0 -1.97,0.887 -1.97,1.969 v 1.086 c 0,1.082 0.89,1.969 1.97,1.969 h 282.015 c 1.077,0 1.969,-0.889 1.969,-1.969 v -1.086 z"
       inkscape:connector-curvature="0" />
    <path
       style="fill:#424242"
       id="path144"
       d="m 321.082,42.304 c 0,-0.712 -0.641,-1.297 -1.411,-1.297 H 38.623 c -0.775,0 -1.411,0.584 -1.411,1.297 0,0.714 0.636,1.298 1.411,1.298 h 281.048 c 0.774,-0.002 1.411,-0.585 1.411,-1.298 z"
       inkscape:connector-curvature="0" />
  </g>
  <g
     id="g152"
     transform="matrix(0.95828712,0,0,0.88143189,-10.211756,-3.3984002)">
    <path
       style="fill:#1a1a1a"
       id="path148"
       d="m 322.067,134.082 c 0,-1.083 -0.891,-1.97 -1.97,-1.97 L 38.081,132.11 c -1.08,0 -1.97,0.889 -1.97,1.97 v 1.084 c 0,1.079 0.89,1.97 1.97,1.97 h 282.015 c 1.077,0 1.969,-0.891 1.969,-1.97 v -1.082 z"
       inkscape:connector-curvature="0" />
    <path
       style="fill:#424242"
       id="path150"
       d="m 321.082,135.841 c 0,-0.711 -0.641,-1.299 -1.411,-1.299 l -281.048,0.001 c -0.775,0 -1.411,0.584 -1.411,1.298 0,0.71 0.636,1.296 1.411,1.296 h 281.048 c 0.774,0 1.411,-0.584 1.411,-1.296 z"
       inkscape:connector-curvature="0" />
  </g>
  <g
     id="g158"
     transform="matrix(0.95828712,0,0,0.88143189,-10.211756,-3.3984002)">
    <path
       style="fill-opacity:0;stroke:#f2f2f2;stroke-width:0.236;stroke-linecap:round;stroke-opacity:0.2"
       id="path154"
       d="m 27.063,37.439 3.115,-3.115"
       inkscape:connector-curvature="0" />
    <path
       style="fill-opacity:0;stroke:#f2f2f2;stroke-width:0.236;stroke-linecap:round;stroke-opacity:0.2"
       id="path156"
       d="m 30.209,143.31 -3.116,-3.118"
       inkscape:connector-curvature="0" />
  </g>
  <g
     id="g164"
     transform="matrix(0.95828712,0,0,0.88143189,-10.211756,-3.3984002)">
    <path
       style="fill-opacity:0;stroke:#f2f2f2;stroke-width:0.236;stroke-linecap:round;stroke-opacity:0.2"
       id="path160"
       d="m 332.099,37.439 -3.117,-3.115"
       inkscape:connector-curvature="0" />
    <path
       style="fill-opacity:0;stroke:#f2f2f2;stroke-width:0.236;stroke-linecap:round;stroke-opacity:0.2"
       id="path162"
       d="m 328.953,143.31 3.115,-3.118"
       inkscape:connector-curvature="0" />
  </g>
  <path
     style="fill-opacity:0;stroke:#1a1a1a;stroke-width:1.30046499;stroke-opacity:0.4"
     id="path166"
     d="m 296.49778,101.35234 c 0,2.86207 -2.55101,5.21843 -5.66734,5.21843 H 32.934186 c -3.115397,0 -5.668268,-2.3456 -5.668268,-5.21843 V 48.43522 c 0,-2.86207 2.552882,-5.21844 5.668268,-5.21844 H 290.82951 c 3.11535,0 5.66539,2.34561 5.66539,5.21844 z"
     inkscape:connector-curvature="0" />
  <g
     id="ecran"
     transform="matrix(1.0269682,0,0,1.0486758,-20.317437,-17.7292)">
    <path
       class="cls-case"
       id="case10"
       d="m 52.884,88.834 h 14.783 v 24.359 H 52.884 Z"
       inkscape:connector-curvature="0"
       style="fill:#ffffff;fill-opacity:0.1" />
    <path
       class="cls-case"
       id="case11"
       d="m 68.727,88.834 h 14.782 v 24.359 H 68.727 Z"
       inkscape:connector-curvature="0"
       style="fill:#ffffff;fill-opacity:0.1" />
    <path
       class="cls-case"
       id="case12"
       d="M 84.566,88.834 H 99.35 v 24.359 H 84.566 Z"
       inkscape:connector-curvature="0"
       style="fill:#ffffff;fill-opacity:0.1" />
    <path
       class="cls-case"
       id="case13"
       d="m 100.408,88.834 h 14.781 v 24.359 h -14.781 z"
       inkscape:connector-curvature="0"
       style="fill:#ffffff;fill-opacity:0.1" />
    <path
       class="cls-case"
       id="case14"
       d="m 116.253,88.834 h 14.78 v 24.359 h -14.78 z"
       inkscape:connector-curvature="0"
       style="fill:#ffffff;fill-opacity:0.1" />
    <path
       class="cls-case"
       id="case15"
       d="m 132.093,88.834 h 14.781 v 24.359 h -14.781 z"
       inkscape:connector-curvature="0"
       style="fill:#ffffff;fill-opacity:0.1" />
    <path
       class="cls-case"
       id="case16"
       d="m 147.934,88.834 h 14.784 v 24.359 h -14.784 z"
       inkscape:connector-curvature="0"
       style="fill:#ffffff;fill-opacity:0.1" />
    <path
       class="cls-case"
       id="case17"
       d="m 163.775,88.834 h 14.783 v 24.359 h -14.783 z"
       inkscape:connector-curvature="0"
       style="fill:#ffffff;fill-opacity:0.1" />
    <path
       class="cls-case"
       id="case18"
       d="m 179.618,88.834 h 14.784 v 24.359 h -14.784 z"
       inkscape:connector-curvature="0"
       style="fill:#ffffff;fill-opacity:0.1" />
    <path
       class="cls-case"
       id="case19"
       d="m 195.459,88.834 h 14.784 v 24.359 h -14.784 z"
       inkscape:connector-curvature="0"
       style="fill:#ffffff;fill-opacity:0.1" />
    <path
       class="cls-case"
       id="case110"
       d="m 211.301,88.834 h 14.779 v 24.359 h -14.779 z"
       inkscape:connector-curvature="0"
       style="fill:#ffffff;fill-opacity:0.1" />
    <path
       class="cls-case"
       id="case111"
       d="m 227.143,88.834 h 14.78 v 24.359 h -14.78 z"
       inkscape:connector-curvature="0"
       style="fill:#ffffff;fill-opacity:0.1" />
    <path
       class="cls-case"
       id="case112"
       d="m 242.985,88.834 h 14.779 v 24.359 h -14.779 z"
       inkscape:connector-curvature="0"
       style="fill:#ffffff;fill-opacity:0.1" />
    <path
       class="cls-case"
       id="case113"
       d="m 258.824,88.834 h 14.784 v 24.359 h -14.784 z"
       inkscape:connector-curvature="0"
       style="fill:#ffffff;fill-opacity:0.1" />
    <path
       class="cls-case"
       id="case114"
       d="m 274.666,88.834 h 14.782 v 24.359 h -14.782 z"
       inkscape:connector-curvature="0"
       style="fill:#ffffff;fill-opacity:0.1" />
    <path
       class="cls-case"
       id="case115"
       d="m 290.508,88.834 h 14.783 v 24.359 h -14.783 z"
       inkscape:connector-curvature="0"
       style="fill:#ffffff;fill-opacity:0.1" />
    <text
       id="case10_text"
       class="cls-textCase"
       x="52.857533"
       y="112.93147"
       width="14.783"
       height="24.358999" />
    <text
       id="case11_text"
       class="cls-textCase"
       x="68.726997"
       y="112.93147"
       width="14.783"
       height="24.358999" />
    <text
       id="case12_text"
       class="cls-textCase"
       x="84.566002"
       y="112.93147"
       width="14.783"
       height="24.358999" />
    <text
       id="case13_text"
       class="cls-textCase"
       x="100.408"
       y="112.93147"
       width="14.783"
       height="24.358999" />
    <text
       id="case14_text"
       class="cls-textCase"
       x="116.253"
       y="112.93147"
       width="14.783"
       height="24.358999" />
    <text
       id="case15_text"
       class="cls-textCase"
       x="132.093"
       y="112.93147"
       width="14.783"
       height="24.358999" />
    <text
       id="case16_text"
       class="cls-textCase"
       x="147.93401"
       y="112.93147"
       width="14.783"
       height="24.358999" />
    <text
       id="case17_text"
       class="cls-textCase"
       x="163.77499"
       y="112.93147"
       width="14.783"
       height="24.358999" />
    <text
       id="case18_text"
       class="cls-textCase"
       x="179.618"
       y="112.93147"
       width="14.783"
       height="24.358999" />
    <text
       id="case19_text"
       class="cls-textCase"
       x="195.459"
       y="112.93147"
       width="14.783"
       height="24.358999" />
    <text
       id="case110_text"
       class="cls-textCase"
       x="211.30099"
       y="112.93147"
       width="14.783"
       height="24.358999" />
    <text
       id="case111_text"
       class="cls-textCase"
       x="227.14301"
       y="112.93147"
       width="14.783"
       height="24.358999" />
    <text
       id="case112_text"
       class="cls-textCase"
       x="242.985"
       y="112.93147"
       width="14.783"
       height="24.358999" />
    <text
       id="case113_text"
       class="cls-textCase"
       x="258.82401"
       y="112.93147"
       width="14.783"
       height="24.358999" />
    <text
       id="case114_text"
       class="cls-textCase"
       x="274.66599"
       y="112.93147"
       width="14.783"
       height="24.358999" />
    <text
       id="case115_text"
       class="cls-textCase"
       x="290.508"
       y="112.93147"
       width="14.783"
       height="24.358999" />
    <path
       class="cls-case"
       id="case00"
       d="M 52.884,63.452 H 67.667 V 87.811 H 52.884 Z"
       inkscape:connector-curvature="0"
       style="fill:#ffffff;fill-opacity:0.1" />
    <path
       class="cls-case"
       id="case01"
       d="M 68.727,63.452 H 83.509 V 87.811 H 68.727 Z"
       inkscape:connector-curvature="0"
       style="fill:#ffffff;fill-opacity:0.1" />
    <path
       class="cls-case"
       id="case02"
       d="M 84.566,63.452 H 99.35 V 87.811 H 84.566 Z"
       inkscape:connector-curvature="0"
       style="fill:#ffffff;fill-opacity:0.1" />
    <path
       class="cls-case"
       id="case03"
       d="m 100.408,63.452 h 14.781 v 24.359 h -14.781 z"
       inkscape:connector-curvature="0"
       style="fill:#ffffff;fill-opacity:0.1" />
    <path
       class="cls-case"
       id="case04"
       d="m 116.253,63.452 h 14.78 v 24.359 h -14.78 z"
       inkscape:connector-curvature="0"
       style="fill:#ffffff;fill-opacity:0.1" />
    <path
       class="cls-case"
       id="case05"
       d="m 132.093,63.452 h 14.781 v 24.359 h -14.781 z"
       inkscape:connector-curvature="0"
       style="fill:#ffffff;fill-opacity:0.1" />
    <path
       class="cls-case"
       id="case06"
       d="m 147.934,63.452 h 14.784 v 24.359 h -14.784 z"
       inkscape:connector-curvature="0"
       style="fill:#ffffff;fill-opacity:0.1" />
    <path
       class="cls-case"
       id="case07"
       d="m 163.775,63.452 h 14.783 v 24.359 h -14.783 z"
       inkscape:connector-curvature="0"
       style="fill:#ffffff;fill-opacity:0.1" />
    <path
       class="cls-case"
       id="case08"
       d="m 179.618,63.452 h 14.784 v 24.359 h -14.784 z"
       inkscape:connector-curvature="0"
       style="fill:#ffffff;fill-opacity:0.1" />
    <path
       class="cls-case"
       id="case09"
       d="m 195.459,63.452 h 14.784 v 24.359 h -14.784 z"
       inkscape:connector-curvature="0"
       style="fill:#ffffff;fill-opacity:0.1" />
    <path
       class="cls-case"
       id="case010"
       d="M 211.301,63.452 H 226.08 V 87.811 H 211.301 Z"
       inkscape:connector-curvature="0"
       style="fill:#ffffff;fill-opacity:0.1" />
    <path
       class="cls-case"
       id="case011"
       d="m 227.143,63.452 h 14.78 v 24.359 h -14.78 z"
       inkscape:connector-curvature="0"
       style="fill:#ffffff;fill-opacity:0.1" />
    <path
       class="cls-case"
       id="case012"
       d="m 242.985,63.452 h 14.779 v 24.359 h -14.779 z"
       inkscape:connector-curvature="0"
       style="fill:#ffffff;fill-opacity:0.1" />
    <path
       class="cls-case"
       id="case013"
       d="m 258.824,63.452 h 14.784 v 24.359 h -14.784 z"
       inkscape:connector-curvature="0"
       style="fill:#ffffff;fill-opacity:0.1" />
    <path
       class="cls-case"
       id="case014"
       d="m 274.666,63.452 h 14.782 v 24.359 h -14.782 z"
       inkscape:connector-curvature="0"
       style="fill:#ffffff;fill-opacity:0.1" />
    <path
       class="cls-case"
       id="case015"
       d="m 290.508,63.452 h 14.783 v 24.359 h -14.783 z"
       inkscape:connector-curvature="0"
       style="fill:#ffffff;fill-opacity:0.1" />
    <text
       id="case00_text"
       class="cls-textCase"
       x="52.857533"
       y="87.549469"
       width="14.783"
       height="24.358999" />
    <text
       id="case01_text"
       class="cls-textCase"
       x="68.726997"
       y="87.549469"
       width="14.783"
       height="24.358999" />
    <text
       id="case02_text"
       class="cls-textCase"
       x="84.566002"
       y="87.549469"
       width="14.783"
       height="24.358999" />
    <text
       id="case03_text"
       class="cls-textCase"
       x="100.408"
       y="87.549469"
       width="14.783"
       height="24.358999" />
    <text
       id="case04_text"
       class="cls-textCase"
       x="116.253"
       y="87.549469"
       width="14.783"
       height="24.358999" />
    <text
       id="case05_text"
       class="cls-textCase"
       x="132.093"
       y="87.549469"
       width="14.783"
       height="24.358999" />
    <text
       id="case06_text"
       class="cls-textCase"
       x="147.93401"
       y="87.549469"
       width="14.783"
       height="24.358999" />
    <text
       id="case07_text"
       class="cls-textCase"
       x="163.77499"
       y="87.549469"
       width="14.783"
       height="24.358999" />
    <text
       id="case08_text"
       class="cls-textCase"
       x="179.618"
       y="87.549469"
       width="14.783"
       height="24.358999" />
    <text
       id="case09_text"
       class="cls-textCase"
       x="195.459"
       y="87.549469"
       width="14.783"
       height="24.358999" />
    <text
       id="case010_text"
       class="cls-textCase"
       x="211.30099"
       y="87.549469"
       width="14.783"
       height="24.358999" />
    <text
       id="case011_text"
       class="cls-textCase"
       x="227.14301"
       y="87.549469"
       width="14.783"
       height="24.358999" />
    <text
       id="case012_text"
       class="cls-textCase"
       x="242.985"
       y="87.549469"
       width="14.783"
       height="24.358999" />
    <text
       id="case013_text"
       class="cls-textCase"
       x="258.82401"
       y="87.549469"
       width="14.783"
       height="24.358999" />
    <text
       id="case014_text"
       class="cls-textCase"
       x="274.66599"
       y="87.549469"
       width="14.783"
       height="24.358999" />
    <text
       id="case015_text"
       class="cls-textCase"
       x="290.508"
       y="87.549469"
       width="14.783"
       height="24.358999" />
  </g>
  <g
     id="g238"
     transform="matrix(0.95828712,0,0,0.88143189,-10.211756,-3.3984002)">
    <path
       style="fill:#606060"
       id="path234"
       d="m 25.849,109.261 v 30.664 h 0.399 v -30.747 c -0.125,0.054 -0.266,0.055 -0.399,0.083 z"
       inkscape:connector-curvature="0" />
    <path
       style="fill:#606060"
       id="path236"
       d="M 26.246,67.471 V 36.722 h -0.397 v 30.671 c 0.133,0.024 0.274,0.027 0.397,0.078 z"
       inkscape:connector-curvature="0" />
  </g>
  <g
     id="g248"
     transform="matrix(0.95828712,0,0,0.88143189,-10.211756,-3.3984002)">
    <path
       style="fill:#212121"
       id="path244"
       d="m 25.486,67.317 c 0.128,0 0.242,0.051 0.364,0.076 V 36.724 h -0.446 v 30.594 h 0.082 z"
       inkscape:connector-curvature="0" />
    <path
       style="fill:#212121"
       id="path246"
       d="m 25.486,109.33 h -0.082 v 30.595 h 0.448 v -30.664 c -0.124,0.021 -0.238,0.069 -0.366,0.069 z"
       inkscape:connector-curvature="0" />
  </g>
  <path
     style="fill:#212121;stroke-width:0.91905737"
     id="path250"
     d="M 18.014606,123.13098 H 304.79559 v 0.43038 H 18.014606 Z"
     inkscape:connector-curvature="0" />
  <path
     style="fill:#606060;stroke-width:0.91905737"
     id="path252"
     d="M 18.014606,122.78882 H 304.79559 v 0.32279 H 18.014606 Z"
     inkscape:connector-curvature="0" />
  <g
     id="g258"
     transform="matrix(0.95828712,0,0,0.88143189,-10.211756,-3.3984002)">
    <path
       style="fill:#212121"
       id="path254"
       d="m 332.69,109.33 c -0.131,0 -0.245,-0.048 -0.368,-0.075 v 30.67 h 0.451 V 109.33 Z"
       inkscape:connector-curvature="0" />
    <path
       style="fill:#212121"
       id="path256"
       d="m 332.69,67.317 h 0.083 V 36.722 h -0.451 v 30.671 c 0.123,-0.025 0.238,-0.076 0.368,-0.076 z"
       inkscape:connector-curvature="0" />
  </g>
  <g
     id="g264"
     transform="matrix(0.95828712,0,0,0.88143189,-10.211756,-3.3984002)">
    <path
       style="fill:#606060"
       id="path260"
       d="m 331.932,109.178 v 30.747 h 0.397 v -30.664 c -0.134,-0.028 -0.276,-0.029 -0.397,-0.083 z"
       inkscape:connector-curvature="0" />
    <path
       style="fill:#606060"
       id="path262"
       d="M 332.324,67.393 V 36.725 h -0.396 v 30.746 c 0.125,-0.051 0.267,-0.054 0.396,-0.078 z"
       inkscape:connector-curvature="0" />
  </g>
  <rect
     style="fill:#000000;fill-opacity:1;fill-rule:nonzero;stroke:#ffffff;stroke-width:0.56749606;stroke-linecap:round;stroke-linejoin:round;stroke-miterlimit:4;stroke-dasharray:none;stroke-dashoffset:0;stroke-opacity:1"
     id="GND2"
     width="9.6923046"
     height="9.6923046"
     x="11.978802"
     y="8.037077"
     inkscape:label="#rect4824" />
  <rect
     style="fill:#000000;fill-opacity:1;fill-rule:nonzero;stroke:#ffffff;stroke-width:0.56749606;stroke-linecap:round;stroke-linejoin:round;stroke-miterlimit:4;stroke-dasharray:none;stroke-dashoffset:0;stroke-opacity:1"
     id="LCD_DATALINE5"
     width="9.6923046"
     height="9.6923046"
     x="174.96028"
     y="8.037077"
     inkscape:label="#rect4824-5" />
  <rect
     style="fill:#000000;fill-opacity:1;fill-rule:nonzero;stroke:#ffffff;stroke-width:0.56749606;stroke-linecap:round;stroke-linejoin:round;stroke-miterlimit:4;stroke-dasharray:none;stroke-dashoffset:0;stroke-opacity:1"
     id="rect4824-7"
     width="9.6923046"
     height="9.6923046"
     x="145.32727"
     y="8.037077" />
  <rect
     style="fill:#000000;fill-opacity:1;fill-rule:nonzero;stroke:#ffffff;stroke-width:0.56749606;stroke-linecap:round;stroke-linejoin:round;stroke-miterlimit:4;stroke-dasharray:none;stroke-dashoffset:0;stroke-opacity:1"
     id="rect4824-1"
     width="9.6923046"
     height="9.6923046"
     x="130.51077"
     y="8.037077" />
  <rect
     style="fill:#000000;fill-opacity:1;fill-rule:nonzero;stroke:#ffffff;stroke-width:0.56749606;stroke-linecap:round;stroke-linejoin:round;stroke-miterlimit:4;stroke-dasharray:none;stroke-dashoffset:0;stroke-opacity:1"
     id="rect4824-2"
     width="9.6923046"
     height="9.6923046"
     x="115.69427"
     y="8.037077" />
  <rect
     style="fill:#000000;fill-opacity:1;fill-rule:nonzero;stroke:#ffffff;stroke-width:0.56749606;stroke-linecap:round;stroke-linejoin:round;stroke-miterlimit:4;stroke-dasharray:none;stroke-dashoffset:0;stroke-opacity:1"
     id="rect4824-24"
     width="9.6923046"
     height="9.6923046"
     x="100.87778"
     y="8.037077" />
  <rect
     style="fill:#000000;fill-opacity:1;fill-rule:nonzero;stroke:#ffffff;stroke-width:0.56749606;stroke-linecap:round;stroke-linejoin:round;stroke-miterlimit:4;stroke-dasharray:none;stroke-dashoffset:0;stroke-opacity:1"
     id="LCD_ENABLE"
     width="9.6923046"
     height="9.6923046"
     x="86.061279"
     y="8.037077"
     inkscape:label="#rect4824-4" />
  <rect
     style="fill:#000000;fill-opacity:1;fill-rule:nonzero;stroke:#ffffff;stroke-width:0.56749606;stroke-linecap:round;stroke-linejoin:round;stroke-miterlimit:4;stroke-dasharray:none;stroke-dashoffset:0;stroke-opacity:1"
     id="GND5"
     width="9.6923046"
     height="9.6923046"
     x="71.244774"
     y="8.037077"
     inkscape:label="#rect4824-72" />
  <rect
     style="fill:#000000;fill-opacity:1;fill-rule:nonzero;stroke:#ffffff;stroke-width:0.56749606;stroke-linecap:round;stroke-linejoin:round;stroke-miterlimit:4;stroke-dasharray:none;stroke-dashoffset:0;stroke-opacity:1"
     id="LCD_RESET"
     width="9.6923046"
     height="9.6923046"
     x="56.428284"
     y="8.037077"
     inkscape:label="#rect4824-0" />
  <rect
     style="fill:#000000;fill-opacity:1;fill-rule:nonzero;stroke:#ffffff;stroke-width:0.56749606;stroke-linecap:round;stroke-linejoin:round;stroke-miterlimit:4;stroke-dasharray:none;stroke-dashoffset:0;stroke-opacity:1"
     id="GND4"
     width="9.6923046"
     height="9.6923046"
     x="41.61179"
     y="8.037077"
     inkscape:label="#rect4824-19" />
  <rect
     style="fill:#000000;fill-opacity:1;fill-rule:nonzero;stroke:#ffffff;stroke-width:0.56749606;stroke-linecap:round;stroke-linejoin:round;stroke-miterlimit:4;stroke-dasharray:none;stroke-dashoffset:0;stroke-opacity:1"
     id="VCC2"
     width="9.6923046"
     height="9.6923046"
     x="26.795294"
     y="8.037077"
     inkscape:label="#rect4824-07" />
  <rect
     style="fill:#000000;fill-opacity:1;fill-rule:nonzero;stroke:#ffffff;stroke-width:0.56749606;stroke-linecap:round;stroke-linejoin:round;stroke-miterlimit:4;stroke-dasharray:none;stroke-dashoffset:0;stroke-opacity:1"
     id="LCD_DATALINE6"
     width="9.6923046"
     height="9.6923046"
     x="189.77676"
     y="8.037077"
     inkscape:label="#rect4824-5-2" />
  <rect
     style="fill:#000000;fill-opacity:1;fill-rule:nonzero;stroke:#ffffff;stroke-width:0.56749606;stroke-linecap:round;stroke-linejoin:round;stroke-miterlimit:4;stroke-dasharray:none;stroke-dashoffset:0;stroke-opacity:1"
     id="LCD_DATALINE4"
     width="9.6923046"
     height="9.6923046"
     x="160.14375"
     y="8.037077"
     inkscape:label="#rect4824-5-3" />
  <rect
     style="fill:#000000;fill-opacity:1;fill-rule:nonzero;stroke:#ffffff;stroke-width:0.56749606;stroke-linecap:round;stroke-linejoin:round;stroke-miterlimit:4;stroke-dasharray:none;stroke-dashoffset:0;stroke-opacity:1"
     id="VCC"
     width="9.6923046"
     height="9.6923046"
     x="219.40974"
     y="8.037077"
     inkscape:label="#rect4824-5-7" />
  <rect
     style="fill:#000000;fill-opacity:1;fill-rule:nonzero;stroke:#ffffff;stroke-width:0.56749606;stroke-linecap:round;stroke-linejoin:round;stroke-miterlimit:4;stroke-dasharray:none;stroke-dashoffset:0;stroke-opacity:1"
     id="LCD_DATALINE7"
     width="9.6923046"
     height="9.6923046"
     x="204.59325"
     y="8.037077"
     inkscape:label="#rect4824-5-75" />
  <rect
     style="fill:#000000;fill-opacity:1;fill-rule:nonzero;stroke:#ffffff;stroke-width:0.56749606;stroke-linecap:round;stroke-linejoin:round;stroke-miterlimit:4;stroke-dasharray:none;stroke-dashoffset:0;stroke-opacity:1"
     id="GND"
     width="9.6923046"
     height="9.6923046"
     x="234.22626"
     y="8.037077"
     inkscape:label="#rect4824-5-28" />
</svg>
